# Blender v2.79 (sub 0) OBJ File: ''
# www.blender.org
mtllib HealthFull.mtl
o Cube_Cube.001
v -0.000000 -0.180230 0.331594
v -0.000000 0.167339 0.331594
v -0.000000 -0.180230 -0.349740
v -0.000000 0.167339 -0.349740
v 3.997556 -0.180230 0.331594
v 3.997556 0.167339 0.331594
v 3.997556 -0.180230 -0.349740
v 3.997556 0.167339 -0.349740
vt 0.000087 0.500000
vt 0.000087 0.250043
vt 0.250043 0.250043
vt 0.250043 0.500000
vt 0.500000 0.250043
vt 0.500000 0.500000
vt 0.749957 0.250043
vt 0.749957 0.500000
vt 0.500000 0.749957
vt 0.500000 0.999913
vt 0.250043 0.999913
vt 0.250043 0.749957
vt 0.250043 0.000087
vt 0.500000 0.000087
vn -1.0000 0.0000 0.0000
vn 0.0000 0.0000 -1.0000
vn 1.0000 0.0000 0.0000
vn 0.0000 0.0000 1.0000
vn 0.0000 -1.0000 0.0000
vn 0.0000 1.0000 0.0000
usemtl None
s off
f 1/1/1 2/2/1 4/3/1 3/4/1
f 3/4/2 4/3/2 8/5/2 7/6/2
f 7/6/3 8/5/3 6/7/3 5/8/3
f 5/9/4 6/10/4 2/11/4 1/12/4
f 3/4/5 7/6/5 5/9/5 1/12/5
f 8/5/6 4/3/6 2/13/6 6/14/6
